<?xml version="1.0" encoding="utf-8" ?>
<svg baseProfile="full" height="400px" version="1.1" width="400px" xmlns="http://www.w3.org/2000/svg" xmlns:ev="http://www.w3.org/2001/xml-events" xmlns:xlink="http://www.w3.org/1999/xlink"><defs /><rect fill="black" height="150" width="40" x="180" y="150" /><path d="M200,150 Q120,80 100,100" fill="black" stroke="black" stroke-width="2" /><path d="M200,150 Q280,80 300,100" fill="black" stroke="black" stroke-width="2" /><path d="M200,150 Q140,40 120,60" fill="black" stroke="black" stroke-width="2" /><path d="M200,150 Q260,40 280,60" fill="black" stroke="black" stroke-width="2" /><path d="M200,150 Q160,20 140,40" fill="black" stroke="black" stroke-width="2" /><path d="M200,150 Q240,20 260,40" fill="black" stroke="black" stroke-width="2" /><path d="M0,350 Q50,330 100,350 T200,350 T300,350 T400,350" fill="none" stroke="black" stroke-width="3" /><text fill="black" font-size="48" x="50" y="100">♪</text><text fill="black" font-size="48" x="150" y="100">♫</text><text fill="black" font-size="48" x="250" y="100">♪</text><text fill="black" font-size="48" x="350" y="100">♫</text></svg>